#!OML:ASF F:\VICON\USERDATA\INSTALL\rory3\rory3.ASF
:FULLY-SPECIFIED
:DEGREES
157
root 0.5454884085428612 18.21539707442954 -14.556279359855571 9.672868330829253 -3.931721850282913 -1.0780043533585544
lfemur -27.71947765577711 7.619719352827927 -19.771132270681395
ltibia 32.50831636990091
lfoot -7.565224521272827 3.9488466449888358
ltoes 1.6823343443127414
rfemur -24.382399331265642 -1.9712538461543345 18.19522473641256
rtibia 31.381018534007076
rfoot -12.763084351753648 -2.423107476941478
rtoes 11.992601420988677
lowerback 6.057364024451458 0.1170811482159109 -1.4369575267807555
upperback 6.467452732928382 0.1360642663818527 1.3802357139873394
thorax 2.855514165361847 -0.038012633223234726 1.4373485102906136
lowerneck -12.312082302864892 2.5903558187829114 -1.804839559864478
upperneck 25.939121294815784 2.926546886402045 0.7220215029750382
head 10.74081649174579 1.4854699623257055 0.45962396791630794
lclavicle -1.205156526347709e-17 -8.160866173524334e-16
lhumerus -17.131473883825787 -11.676845898198028 89.13757280824879
lradius 27.767460455094195
lwrist 18.41047264707654
lhand -28.903285697539815 -5.292243561561268
lfingers 7.125019999999999
lthumb -1.4494693689776272 25.703730285130685
rclavicle -1.2086432724399283e-17 -8.165318075908614e-16
rhumerus -21.072619951374307 -2.931777878063821 -82.24674789447793
rradius 29.238635779129574
rwrist 28.853392245780412
rhand -18.3779252755535 -26.33712890896677
rfingers 7.125019999999999
rthumb 7.633510007650498 -56.08467794523769
158
root 0.4526810990697651 18.207801419441264 -14.703931551494211 9.42654479574208 -3.1500228662332788 -0.6914546861053119
lfemur -27.549316388584582 7.584546768314111 -20.009102823455997
ltibia 33.14258507883821
lfoot -7.856342815657395 3.707712428365728
ltoes 2.0354834084792506
rfemur -23.42254859706127 -2.120656514136714 17.78936811686079
rtibia 31.544515597461952
rfoot -13.072241817526551 -2.633045352467313
rtoes 11.818307015733314
lowerback 6.423859426486252 -0.06443774285564582 -2.0246720194263927
upperback 6.591718174733493 -0.12814890269444124 1.2816871584183553
thorax 2.9197925940925336 -0.17478548977645808 1.6106876387976137
lowerneck -12.489630435889849 2.342227857003623 -1.8060193218542413
upperneck 25.586724596728608 2.6452108278081092 0.8332330502241116
head 10.74214604236979 1.3734621951783073 0.4735250724557793
lclavicle -1.1960616047826671e-17 -8.159742805160789e-16
lhumerus -17.089558653779086 -11.6247894569622 89.22344291840108
lradius 27.10046493587882
lwrist 17.535810150459998
lhand -28.27132652194735 -5.210938484699437
lfingers 7.125019999999999
lthumb -1.2034830227168958 25.639597352001772
rclavicle -1.2257843322257436e-17 -8.167579184941172e-16
rhumerus -20.90340456941275 -3.020306922419876 -82.1886625872151
rradius 29.817125316982
rwrist 27.94287035708801
rhand -18.518263961528312 -26.411385590354357
rfingers 7.125019999999999
rthumb 7.444450102807559 -56.16621472687794
159
root 0.33221117962173885 18.19715463343967 -14.812040115228191 9.048862145085902 -1.627514564451185 -0.22155408612923488
lfemur -27.332796438461582 7.423782186700677 -20.240045523799346
ltibia 33.979686522337076
lfoot -8.293454000550614 3.3826436683039947
ltoes 2.8764797127949047
rfemur -22.008718706022098 -2.3475214927510715 17.40033001941734
rtibia 31.63688578349002
rfoot -13.51390722005677 -3.1114220504303938
rtoes 11.242000055923803
lowerback 6.706978381669777 -0.38474411163846145 -2.4284866426793137
upperback 6.675173509806248 -0.5952683579763565 1.2340204024088686
thorax 3.018707614869846 -0.40494858856099253 1.8505001268172199
lowerneck -12.743816238609046 1.5928498212582949 -1.8738263912763722
upperneck 25.19448812690101 1.7813293168733308 1.0003872930049242
head 10.667940461371556 0.9559552037530027 0.5003699449445027
lclavicle -1.193840975957834e-17 -8.159164748084954e-16
lhumerus -17.116900125439905 -12.395321819869462 89.42829636009168
lradius 26.49542135309337
lwrist 16.73539632296534
lhand -27.448089297008575 -5.116179273434354
lfingers 7.125019999999999
lthumb -0.8162609114991998 25.541660600860173
rclavicle -1.2250529686264348e-17 -8.167481960711447e-16
rhumerus -20.812173356291506 -3.4363440090254596 -82.06316746668153
rradius 30.16616604283031
rwrist 27.067948786368667
rhand -18.508637171833946 -26.56386721916464
rfingers 7.125019999999999
rthumb 7.359803957261334 -56.32547823246286
160
root 0.19339328446020293 18.167904246431135 -14.846782170582712 8.740777450117456 0.49500732282024584 0.1314457029021865
lfemur -27.613228527260645 7.1012665727905855 -20.362976627268726
ltibia 35.12936606353469
lfoot -8.774379613071137 3.065476695927118
ltoes 4.269590533413107
rfemur -20.354591161287956 -2.617284943237374 17.323363130288858
rtibia 31.51133343173197
rfoot -13.928723743392581 -3.8162636685625335
rtoes 10.528074000041345
lowerback 7.094715918568023 -0.7045165457703665 -2.3367691665547463
upperback 6.744378511073201 -1.0504389542934516 1.2981679738290595
thorax 3.1169772852586823 -0.6130344358705612 2.091680367312228
lowerneck -13.029872957732318 0.132179670233408 -2.011623757807262
upperneck 24.58953838775869 0.05002038448394174 1.3285091581144621
head 10.45276053730893 0.07227879814298213 0.5609409616838967
lclavicle -1.1794841492772614e-17 -8.157385723429304e-16
lhumerus -17.22744600489618 -13.747106210037556 89.74718925581337
lradius 26.139288166967834
lwrist 16.232304551512286
lhand -26.975387535899237 -5.0977898798895085
lfingers 7.125019999999999
lthumb -0.6424448940017505 25.343347990941574
rclavicle -1.2054943363592862e-17 -8.164902435749759e-16
rhumerus -20.80016218778399 -4.272054099265573 -81.8720461931583
rradius 30.2491694072248
rwrist 26.215464409170227
rhand -18.407859761139974 -26.751381696048735
rfingers 7.125019999999999
rthumb 7.339848754338314 -56.53496896454103
161
root 0.04270786026168344 18.083977644058578 -14.841453010580729 8.742078034242269 2.6553886821106216 0.10617988427071734
lfemur -28.81499690163984 6.685228379450699 -20.23038962713027
ltibia 36.55113663080194
lfoot -9.340421640157363 2.863738429363866
ltoes 5.824440991656656
rfemur -18.942853186799166 -2.9225070895279646 17.829784581076098
rtibia 31.14645878557686
rfoot -14.288399289117484 -4.489132615362324
rtoes 9.73056858860642
lowerback 7.981181258022317 -0.8284231912252634 -1.7201252989237705
upperback 6.809324996954755 -1.2253455827311834 1.4939458921967799
thorax 3.1185279686966356 -0.6839515196281551 2.244889970810553
lowerneck -13.301021236871811 -1.9711383533753024 -2.191910920439917
upperneck 23.595931247797058 -2.4724816700910566 1.9095827648292047
head 10.099276658209327 -1.264537126171048 0.6977123974002978
lclavicle -1.1838157358763603e-17 -8.158267171786501e-16
lhumerus -17.337255932815843 -14.996129533019783 90.12933400370014
lradius 26.119630827602382
lwrist 16.176510561020404
lhand -27.11502646345054 -5.204633110426096
lfingers 7.125019999999999
lthumb -0.783047223160566 25.108307427326423
rclavicle -1.191580449504674e-17 -8.16306794992932e-16
rhumerus -20.720428147672795 -5.457978556314563 -81.66865451001276
rradius 30.069233701961057
rwrist 25.47302319889337
rhand -18.283438321888475 -26.91531855330195
rfingers 7.125019999999999
rthumb 7.332248540576363 -56.725945580621186
